<?xml version="1.0" encoding="utf-8"?>
<!-- Generator: Adobe Illustrator 27.2.0, SVG Export Plug-In . SVG Version: 6.00 Build 0)  -->
<svg version="1.1" id="Layer_1" xmlns="http://www.w3.org/2000/svg" xmlns:xlink="http://www.w3.org/1999/xlink" x="0px" y="0px"
	 viewBox="0 0 69 27" style="enable-background:new 0 0 69 27;" xml:space="preserve">
<style type="text/css">
	.st0{fill-rule:evenodd;clip-rule:evenodd;fill:#FFFFFF;}
	.st1{fill:#FFFFFF;}
	.st2{fill:#F7B512;}
	.st3{fill:#989898;}
</style>
<g>
	<g>
		<path class="st0" d="M26.6,6.3c0.8,0,1.6,0,2.4,0l3.3,6.4V6.3h2v10.1l-2.2,0l-3.6-7.2v7.2h-2V6.3z"/>
		<path class="st0" d="M56.4,8.7c2.1,0,3.8,1.7,3.8,3.9c0,2.1-1.7,3.9-3.8,3.9c-2.1,0-3.8-1.7-3.8-3.9S54.3,8.7,56.4,8.7z
			 M56.4,10.7c1.1,0,1.9,0.9,1.9,1.9c0,1.1-0.9,1.9-1.9,1.9s-1.9-0.9-1.9-1.9C54.5,11.5,55.3,10.7,56.4,10.7z"/>
		<path class="st0" d="M38.7,8.7c2.1,0,3.8,1.7,3.8,3.9c0,2.1-1.7,3.9-3.8,3.9c-2.1,0-3.8-1.7-3.8-3.9S36.6,8.7,38.7,8.7z
			 M38.7,10.7c1.1,0,1.9,0.9,1.9,1.9c0,1.1-0.9,1.9-1.9,1.9c-1.1,0-1.9-0.9-1.9-1.9C36.8,11.5,37.7,10.7,38.7,10.7z"/>
		<path class="st0" d="M43.2,9v7.4h2.2v-3.5c0-0.3,0-0.5,0.1-0.8c0.2-0.6,0.5-1.1,1.1-1.4c0.3-0.2,0.3-0.2,0.7-0.2h1.4v4
			c0.1,2.2,2.3,2.3,3.9,1.8c-0.1-0.5-0.2-1-0.3-1.5c-0.9,0.2-1.6,0.3-1.6-0.9v-3.5h1.6V8.9h-1.5V6.8h-1.7c-0.2,0.7-0.3,1.4-0.5,2.1
			h-1.2c-0.5,0-1,0.1-1.4,0.5c-0.4,0.3-0.7,0.6-0.8,1.2c-0.2-0.5-0.4-1-0.6-1.5C44,9,43.6,9,43.2,9L43.2,9z"/>
		<path class="st0" d="M60.8,8.9v7.5h2.1v-5c0-0.7,1.7-1.3,2.3-0.5c0.2,0.2,0.2,0.3,0.2,0.6v4.8h2.1v-5.2c0-0.6-0.3-1.2-0.6-1.6
			c-0.5-0.7-1.3-1-2.4-0.8c-0.7,0.1-1.3,0.6-2,1.2c-0.1-0.4-0.3-0.8-0.4-1.1C61.6,8.9,61.2,8.9,60.8,8.9L60.8,8.9z"/>
		<path class="st1" d="M67.9,9.1h0.3V8.9h-0.7v0.2h0.3v0.8h0.2L67.9,9.1L67.9,9.1z M69,8.9h-0.2l-0.1,0.8h0l-0.1-0.8h-0.3v1h0.2V9.1
			h0l0.2,0.8h0.2l0.2-0.8h0v0.8H69L69,8.9L69,8.9z"/>
		<path class="st2" d="M11.6,27C5.2,27,0,21.8,0,15.3C0,8.9,5.2,3.6,11.6,3.6c6.4,0,11.6,5.2,11.6,11.7C23.1,21.8,17.9,27,11.6,27z
			 M11.6,7.3C9.4,7.3,7.5,8.1,6,9.7c-1.5,1.5-2.3,3.5-2.3,5.7S4.5,19.4,6,21c1.5,1.5,3.5,2.3,5.6,2.3c2.1,0,4.1-0.8,5.6-2.3
			c1.5-1.5,2.3-3.5,2.3-5.7s-0.8-4.1-2.3-5.7C15.7,8.1,13.7,7.3,11.6,7.3z"/>
		<path class="st2" d="M25,1.8h-0.9v0.9H25V1.8z"/>
		<path class="st2" d="M25,0h-0.9v0.9H25V0z"/>
		<path class="st2" d="M22.5,2.7h-0.8v0.9h0.8V2.7z"/>
		<path class="st1" d="M20.8,4.5h-0.8v0.9h0.8V4.5z"/>
		<path class="st1" d="M23.4,3.6h-0.9v0.9h0.9V3.6z"/>
		<path class="st1" d="M19.9,3.7h-0.8v0.8h0.8V3.7z"/>
		<path class="st1" d="M22.5,4.5h-0.8v0.9h0.8V4.5z"/>
		<path class="st1" d="M24.1,0.9h-0.9v0.9h0.9V0.9z"/>
		<path class="st1" d="M23.3,1.8h-1.6v0.9h1.6V1.8z"/>
		<path class="st1" d="M21.6,2.7h-0.8v1.7h0.8V2.7z"/>
		<path class="st1" d="M20.8,5.3v0.9h-0.8V5.3h-1.4v0.6h-0.8v0.8h0.8v0.8h-0.8V6.7h-0.9V8H16v0.8h-0.6v0.9h-0.6
			c-0.7,1-2.4,4.3-3,5.6c-1.9-2.7-3.4-3.7-4.5-4.1C6.7,11.1,6,11.8,7,12.8c2.4,2.7,3.1,4.9,3.9,6.6c0.4,0.9,2.1,1.1,2.5,0.1
			c0.7-2,1.8-4.2,3.1-6.1v-0.9h0.7v-0.9h0.7v-1h0.8v-1h-0.9V8.9h0.9v0.9h0.8l0-0.9h0.7v-1h0.8V7.1h0.7V5.3L20.8,5.3L20.8,5.3z"/>
		<path class="st3" d="M36.2,23.3l-0.2,0.4c0.2,0.1,0.4,0.3,0.8,0.4c0.3,0.1,0.6,0.2,1,0.2c0.6,0,1-0.1,1.3-0.4
			c0.3-0.3,0.5-0.6,0.5-1.1c0-0.5-0.2-0.8-0.5-1.1c-0.3-0.3-0.7-0.4-1.2-0.6c-0.4-0.2-0.7-0.3-0.9-0.5c-0.2-0.2-0.3-0.4-0.3-0.7
			s0.1-0.5,0.3-0.7c0.2-0.2,0.5-0.2,0.9-0.2c0.3,0,0.6,0.1,0.8,0.1c0.2,0.1,0.3,0.1,0.4,0.2l0.2-0.4c-0.2-0.1-0.4-0.2-0.6-0.2
			c-0.2-0.1-0.5-0.1-0.9-0.1c-0.5,0-0.9,0.1-1.2,0.4c-0.3,0.2-0.4,0.6-0.4,1c0,0.5,0.2,0.8,0.4,1c0.3,0.2,0.6,0.4,1.1,0.6
			c0.4,0.2,0.7,0.3,0.9,0.5c0.2,0.2,0.4,0.4,0.4,0.8c0,0.3-0.1,0.6-0.3,0.7c-0.2,0.2-0.5,0.3-0.9,0.3c-0.4,0-0.7-0.1-0.9-0.2
			C36.5,23.5,36.3,23.4,36.2,23.3L36.2,23.3z"/>
		<path class="st3" d="M39.8,20.3h0.6l1.1,3.5l1-3.5h0.6l-1.4,4.4c-0.2,0.7-0.6,1.1-1.3,1.1c-0.1,0-0.3,0-0.4-0.1l0.1-0.4
			c0.1,0,0.2,0,0.3,0c0.5,0,0.8-0.3,0.9-0.8L39.8,20.3L39.8,20.3z"/>
		<path class="st3" d="M47.9,20.2c0.8,0,1,0.7,1,1.3v2.8h-0.6v-2.8c0-0.4-0.1-0.8-0.6-0.8c-0.4,0-0.7,0.2-1.1,0.6v3H46v-2.8
			c0-0.4-0.1-0.8-0.6-0.8c-0.4,0-0.7,0.3-1.1,0.6v3h-0.6v-4h0.3l0.2,0.7c0.4-0.4,0.8-0.7,1.4-0.7c0.5,0,0.7,0.3,0.9,0.7
			C46.9,20.5,47.4,20.2,47.9,20.2L47.9,20.2z"/>
		<path class="st3" d="M52.1,22.1c-0.9,0.2-1.4,0.4-1.7,0.6c-0.1,0.1-0.1,0.2-0.1,0.4c0,0.4,0.2,0.7,0.7,0.7c0.5,0,0.8-0.2,1.1-0.5
			V22.1L52.1,22.1z M52.1,21.6c0-0.6-0.2-0.9-0.8-0.9c-0.4,0-0.8,0.2-1.1,0.4L50,20.6c0.4-0.3,0.8-0.5,1.4-0.5c1,0,1.3,0.5,1.3,1.4
			v2.7h-0.3c0,0-0.2-0.5-0.2-0.5c-0.3,0.3-0.7,0.6-1.2,0.6c-0.7,0-1.2-0.4-1.2-1.1c0-0.4,0.2-0.8,0.6-1c0.4-0.2,1-0.4,1.8-0.5
			L52.1,21.6L52.1,21.6z"/>
		<path class="st3" d="M54,20.3h0.3l0.2,0.7c0.4-0.4,0.8-0.8,1.4-0.8c0.8,0,1.1,0.7,1.1,1.3v2.8h-0.6v-2.8c0-0.4-0.1-0.8-0.7-0.8
			c-0.4,0-0.8,0.3-1.2,0.6v2.9H54V20.3L54,20.3z"/>
		<path class="st3" d="M57.8,20.7v-0.4h0.6l0.2-1.1h0.4v1.1h0.9v0.4h-0.9v2.6c0,0.4,0.1,0.6,0.4,0.6c0.2,0,0.3,0,0.5-0.1l0.1,0.4
			c-0.1,0.1-0.4,0.1-0.6,0.1c-0.7,0-1-0.4-1-1v-2.7H57.8z"/>
		<path class="st3" d="M62.9,22c0-0.9-0.3-1.4-0.9-1.4c-0.5,0-0.9,0.4-1,1.4H62.9z M62.1,23.9c0.5,0,0.7-0.2,1.1-0.4l0.2,0.3
			c-0.4,0.3-0.7,0.5-1.4,0.5c-1,0-1.6-0.8-1.6-2.1s0.6-2.1,1.6-2.1s1.5,0.7,1.5,2.1v0.1H61C61.1,23.4,61.4,23.9,62.1,23.9z"/>
		<path class="st3" d="M64.2,22.3c0-1,0.4-2.1,1.6-2.1c0.5,0,0.9,0.1,1.2,0.4L66.8,21c-0.2-0.2-0.6-0.3-1-0.3c-0.9,0-1,1-1,1.7
			c0,0.6,0.1,1.6,1,1.6c0.4,0,0.7-0.2,1-0.4l0.3,0.3c-0.3,0.3-0.7,0.5-1.3,0.5C64.7,24.3,64.2,23.3,64.2,22.3L64.2,22.3z"/>
		<path class="st3" d="M30.3,20.3h0.6l1.1,3.5l1-3.5h0.6l-1.4,4.4c-0.2,0.7-0.6,1.1-1.3,1.1c-0.1,0-0.3,0-0.4-0.1l0.1-0.4
			c0.1,0,0.2,0,0.3,0c0.5,0,0.8-0.3,0.9-0.8L30.3,20.3L30.3,20.3z"/>
		<path class="st3" d="M29.3,21.8c0,0.1,0,0.2,0,0.3c0,0.1,0,0.2,0,0.3c0,0.1,0,0.1,0,0.2c0,0.1,0,0.1,0,0.1c0,0.1,0,0.1,0,0.1
			c0,0,0,0.1,0,0.1c0,0,0,0.1,0,0.1c0,0,0,0.1,0,0.1c0,0,0,0.1-0.1,0.1c0,0,0,0.1-0.1,0.1h0c0,0,0,0.1-0.1,0.1c0,0-0.1,0.1-0.1,0.1
			c0,0-0.1,0-0.1,0.1c0,0-0.1,0-0.1,0.1c0,0-0.1,0-0.1,0c0,0-0.1,0-0.1,0c0,0-0.1,0-0.1,0c0,0-0.1,0-0.1,0c0,0-0.1,0-0.1,0
			c0,0-0.1,0-0.1,0c0,0-0.1,0-0.1,0c0,0,0,0-0.1,0l0,0l0,0c0,0-0.1,0-0.1,0c0,0,0,0-0.1,0c0,0,0,0-0.1,0c0,0,0,0-0.1,0v0h0
			c0,0,0,0-0.1,0c0,0,0,0-0.1,0c0,0,0,0-0.1,0c0,0,0,0,0,0c0,0,0,0,0,0c0,0,0,0,0,0c0,0,0,0,0,0c0,0,0,0,0,0l0,0l0,0v-2.1l0,0l0,0
			c0,0,0.1-0.1,0.1-0.1c0,0,0.1-0.1,0.1-0.1l0,0c0,0,0.1,0,0.1-0.1c0,0,0.1,0,0.1-0.1c0,0,0.1,0,0.1-0.1c0,0,0.1,0,0.1,0
			c0,0,0.1,0,0.1,0c0,0,0.1,0,0.1,0c0,0,0.1,0,0.1,0c0,0,0.1,0,0.1,0c0,0,0.1,0,0.1,0c0,0,0.1,0,0.1,0c0,0,0.1,0,0.1,0
			c0,0,0.1,0,0.1,0c0,0,0.1,0,0.1,0.1c0,0,0.1,0,0.1,0.1c0,0,0.1,0.1,0.1,0.1c0,0,0,0.1,0.1,0.1c0,0,0,0.1,0.1,0.1
			c0,0,0,0.1,0.1,0.1c0,0,0,0.1,0,0.2C29.2,21.7,29.2,21.8,29.3,21.8L29.3,21.8z M29.8,22.8c0-0.1,0-0.1,0-0.2c0-0.1,0-0.2,0-0.2
			c0-0.1,0-0.1,0-0.2c0-0.1,0-0.2,0-0.2c0-0.1,0-0.1,0-0.2c0-0.1,0-0.1,0-0.1c0,0,0-0.1,0-0.1c0,0,0-0.1,0-0.1c0,0,0-0.1-0.1-0.1
			c0,0,0-0.1-0.1-0.1c0,0,0-0.1-0.1-0.1c0,0,0-0.1-0.1-0.1c0,0,0-0.1-0.1-0.1c0,0-0.1-0.1-0.1-0.1c0,0-0.1,0-0.1-0.1
			c0,0-0.1,0-0.1-0.1c0,0-0.1,0-0.1-0.1c0,0-0.1,0-0.1,0c0,0-0.1,0-0.1,0c0,0-0.1,0-0.1,0c0,0-0.1,0-0.1,0c0,0-0.1,0-0.1,0
			c0,0-0.1,0-0.1,0c0,0-0.1,0-0.1,0c0,0-0.1,0-0.1,0h-0.1c-0.1,0-0.1,0-0.2,0c-0.1,0-0.1,0-0.2,0c0,0-0.1,0-0.1,0c0,0-0.1,0-0.1,0.1
			c0,0-0.1,0-0.1,0.1c0,0-0.1,0-0.1,0.1c0,0-0.1,0.1-0.1,0.1c0,0-0.1,0.1-0.1,0.1l0,0l0,0h0v-2.1h-0.5v5.5h0.4l0.1-0.4l0,0v0h0l0,0
			l0,0c0,0,0,0,0,0c0,0,0,0,0,0l0,0c0,0,0,0,0,0c0,0,0,0,0,0c0,0,0,0,0,0c0,0,0,0,0,0c0,0,0,0,0.1,0c0,0,0,0,0.1,0h0c0,0,0,0,0.1,0
			c0,0,0,0,0.1,0c0,0,0.1,0,0.1,0c0,0,0,0,0.1,0l0,0c0,0,0.1,0,0.1,0c0,0,0.1,0,0.1,0c0,0,0.1,0,0.1,0c0,0,0.1,0,0.1,0
			c0.1,0,0.1,0,0.2,0c0.1,0,0.1,0,0.1,0c0,0,0.1,0,0.1,0c0,0,0.1,0,0.1-0.1h0c0,0,0.1,0,0.1-0.1c0,0,0.1-0.1,0.1-0.1
			c0,0,0.1-0.1,0.1-0.1c0,0,0.1-0.1,0.1-0.1l0,0c0,0,0.1-0.1,0.1-0.1c0,0,0.1-0.1,0.1-0.1c0-0.1,0.1-0.1,0.1-0.2
			c0-0.1,0.1-0.1,0.1-0.2c0-0.1,0-0.1,0.1-0.2C29.8,22.9,29.8,22.8,29.8,22.8L29.8,22.8z"/>
	</g>
</g>
</svg>
